<svg width="131" height="28" viewBox="0 0 131 28" fill="none" xmlns="http://www.w3.org/2000/svg">
<path d="M18.2011 21.1145L16.9941 22.3206L12.8212 18.1477V25.594H11.1142V18.1477L6.94036 22.3206L5.73431 21.1145L11.9677 14.8811L18.2011 21.1145ZM10.7607 13.6741L4.52728 19.9075L3.32122 18.7014L7.49407 14.5276L0.000909805 14.5266V12.8215L7.49407 12.8206L3.32122 8.64673L4.52728 7.44067L10.7607 13.6741ZM20.6142 8.64673L16.4404 12.8206L23.8876 12.8215L23.8886 13.6741L23.8876 14.5266L16.4404 14.5276L20.6142 18.7014L19.4072 19.9075L13.1738 13.6741L19.4072 7.44067L20.6142 8.64673ZM12.8202 1.7063L12.8212 9.20044L16.9941 5.02661L18.2011 6.23364L11.9677 12.467L5.73431 6.23364L6.94036 5.02661L11.1142 9.20044V1.7063L11.9677 1.70532L12.8202 1.7063Z" fill="white"/>
<path d="M34.6037 19.0098C34.7098 19.4648 34.7781 20.1018 34.8084 20.9208C34.8084 21.118 34.8994 21.2166 35.0814 21.2166C35.2634 21.2166 35.3544 21.118 35.3544 20.9208C35.3544 20.2231 35.4075 19.5861 35.5137 19.0098L37.7205 7.13394H41.3606L43.5674 19.0098C43.6736 19.5861 43.7266 20.2231 43.7266 20.9208C43.7266 21.118 43.8176 21.2166 43.9996 21.2166C44.1817 21.2166 44.2727 21.118 44.2727 20.9208C44.2727 20.2535 44.3409 19.6164 44.4774 19.0098L47.1847 7.13394H50.4608L46.4567 23.1504H41.7246L39.95 12.7988C39.859 12.3135 39.8135 11.6689 39.8135 10.865C39.8135 10.6527 39.7225 10.5465 39.5405 10.5465C39.3585 10.5465 39.2675 10.6527 39.2675 10.865C39.2675 11.6689 39.222 12.3135 39.131 12.7988L37.3565 23.1504H32.6243L28.6202 7.13394H31.8963L34.6037 19.0098ZM61.3614 16.9849C61.3614 17.2276 61.3386 17.5234 61.2931 17.8722H52.5569C52.6631 18.7822 52.9967 19.4951 53.5579 20.0108C54.1191 20.5265 54.8547 20.7843 55.7647 20.7843C56.9933 20.7843 57.8047 20.1776 58.199 18.9643H61.1566C60.8836 20.2838 60.2921 21.3455 59.3821 22.1493C58.4872 22.938 57.2738 23.3324 55.742 23.3324C54.4831 23.3324 53.3987 23.0669 52.4886 22.5361C51.5786 22.0052 50.8885 21.2772 50.4183 20.352C49.9482 19.4117 49.7131 18.3424 49.7131 17.1442C49.7131 15.9005 49.9557 14.8161 50.4411 13.8909C50.9264 12.9505 51.6165 12.2301 52.5114 11.7296C53.4214 11.2139 54.4831 10.956 55.6965 10.956C56.6823 10.956 57.5999 11.1684 58.4493 11.5931C59.3138 12.0026 60.0115 12.6623 60.5423 13.5724C61.0884 14.4672 61.3614 15.6047 61.3614 16.9849ZM58.4493 15.8702C58.3886 15.1118 58.1308 14.4976 57.6758 14.0274C57.2208 13.5572 56.5913 13.3221 55.7875 13.3221C54.0584 13.3221 53.0195 14.1715 52.6706 15.8702H58.4493ZM62.4436 19.8515C62.4436 18.6078 62.838 17.6902 63.6267 17.0987C64.4305 16.492 65.4922 16.1508 66.8117 16.0749L67.972 16.0294C69.0034 15.9991 69.739 15.9308 70.1788 15.8247C70.6187 15.7185 70.831 15.4607 70.8158 15.0511C70.8007 14.5355 70.6263 14.1184 70.2926 13.7999C69.9589 13.4814 69.3295 13.3221 68.4043 13.3221C67.4639 13.3221 66.7966 13.4889 66.4022 13.8226C66.0079 14.1411 65.7652 14.581 65.6742 15.1422H62.8076C63.0048 13.7164 63.6342 12.6623 64.6959 11.9798C65.7576 11.2973 67.0241 10.956 68.4953 10.956C70.103 10.956 71.377 11.3504 72.3174 12.1391C73.2577 12.9278 73.7279 14.3838 73.7279 16.5072V23.1504H70.8158V22.3086C70.8158 21.8536 70.9296 21.4137 71.1571 20.9891C71.2178 20.8374 71.2481 20.7236 71.2481 20.6478C71.2481 20.5568 71.2102 20.4961 71.1343 20.4658L71.0433 20.443C70.9523 20.443 70.8841 20.4885 70.8386 20.5795C70.7931 20.6554 70.7703 20.7009 70.7703 20.716C70.0575 22.4603 68.6773 23.3324 66.6297 23.3324C65.8865 23.3324 65.1889 23.1807 64.5367 22.8774C63.8997 22.574 63.3916 22.1569 63.0124 21.6261C62.6332 21.0952 62.4436 20.5037 62.4436 19.8515ZM70.8158 16.9622C70.5125 17.2959 70.1106 17.531 69.6101 17.6675C69.1247 17.7888 68.3588 17.9026 67.3122 18.0087C66.6601 18.0846 66.1671 18.259 65.8335 18.532C65.515 18.7898 65.3557 19.1766 65.3557 19.6923C65.3557 20.1321 65.5225 20.4885 65.8562 20.7615C66.2051 21.0346 66.6525 21.1711 67.1985 21.1711C67.3957 21.1711 67.5473 21.1635 67.6535 21.1483C68.5484 21.027 69.2915 20.6402 69.8831 19.988C70.4897 19.3358 70.8007 18.3272 70.8158 16.9622ZM80.2243 19.9198C80.3304 20.2686 80.3835 20.7085 80.3835 21.2393C80.3835 21.4668 80.4745 21.5806 80.6565 21.5806C80.8385 21.5806 80.9295 21.4668 80.9295 21.2393C80.9295 20.7085 80.9826 20.2686 81.0888 19.9198L83.7506 11.138H86.8447L82.7496 23.1504H78.5635L74.4684 11.138H77.5625L80.2243 19.9198ZM98.5088 16.9849C98.5088 17.2276 98.4861 17.5234 98.4406 17.8722H89.7043C89.8105 18.7822 90.1442 19.4951 90.7054 20.0108C91.2666 20.5265 92.0022 20.7843 92.9122 20.7843C94.1407 20.7843 94.9521 20.1776 95.3465 18.9643H98.3041C98.0311 20.2838 97.4395 21.3455 96.5295 22.1493C95.6347 22.938 94.4213 23.3324 92.8894 23.3324C91.6306 23.3324 90.5461 23.0669 89.6361 22.5361C88.7261 22.0052 88.036 21.2772 87.5658 20.352C87.0956 19.4117 86.8605 18.3424 86.8605 17.1442C86.8605 15.9005 87.1032 14.8161 87.5885 13.8909C88.0739 12.9505 88.764 12.2301 89.6588 11.7296C90.5689 11.2139 91.6306 10.956 92.8439 10.956C93.8298 10.956 94.7474 11.1684 95.5967 11.5931C96.4613 12.0026 97.159 12.6623 97.6898 13.5724C98.2358 14.4672 98.5088 15.6047 98.5088 16.9849ZM95.5967 15.8702C95.5361 15.1118 95.2782 14.4976 94.8232 14.0274C94.3682 13.5572 93.7388 13.3221 92.9349 13.3221C91.2059 13.3221 90.1669 14.1715 89.8181 15.8702H95.5967ZM107.599 6.95194C109.222 6.95194 110.64 7.31595 111.854 8.04397C113.067 8.77198 113.992 9.75784 114.629 11.0015C115.281 12.2452 115.607 13.6254 115.607 15.1422C115.607 16.6589 115.281 18.0391 114.629 19.2828C113.992 20.5265 113.067 21.5123 111.854 22.2403C110.64 22.9684 109.222 23.3324 107.599 23.3324C105.976 23.3324 104.558 22.9684 103.345 22.2403C102.132 21.5123 101.199 20.5265 100.547 19.2828C99.9096 18.0391 99.5911 16.6589 99.5911 15.1422C99.5911 13.6254 99.9096 12.2452 100.547 11.0015C101.199 9.75784 102.132 8.77198 103.345 8.04397C104.558 7.31595 105.976 6.95194 107.599 6.95194ZM107.599 20.6023C108.6 20.6023 109.472 20.3596 110.216 19.8743C110.959 19.3889 111.528 18.7367 111.922 17.9177C112.316 17.0835 112.513 16.1583 112.513 15.1422C112.513 14.126 112.316 13.2084 111.922 12.3893C111.528 11.5551 110.959 10.8954 110.216 10.41C109.472 9.92468 108.6 9.68201 107.599 9.68201C106.598 9.68201 105.726 9.92468 104.983 10.41C104.24 10.8954 103.671 11.5551 103.277 12.3893C102.882 13.2084 102.685 14.126 102.685 15.1422C102.685 16.1583 102.882 17.0835 103.277 17.9177C103.671 18.7367 104.24 19.3889 104.983 19.8743C105.726 20.3596 106.598 20.6023 107.599 20.6023ZM123.077 13.3449C124.457 13.5117 125.602 13.7619 126.512 14.0956C127.438 14.4141 128.158 14.9146 128.674 15.5972C129.189 16.2797 129.447 17.2049 129.447 18.3727C129.447 19.2676 129.189 20.0942 128.674 20.8526C128.173 21.6109 127.43 22.2176 126.444 22.6726C125.458 23.1124 124.275 23.3324 122.895 23.3324C121.469 23.3324 120.264 23.0594 119.278 22.5133C118.292 21.9673 117.556 21.2545 117.071 20.3748C116.586 19.4951 116.343 18.5396 116.343 17.5082H119.346C119.376 18.3576 119.649 19.1159 120.165 19.7833C120.681 20.4506 121.591 20.7843 122.895 20.7843C123.714 20.7843 124.382 20.6705 124.897 20.443C125.428 20.2004 125.8 19.9122 126.012 19.5785C126.239 19.2297 126.353 18.8884 126.353 18.5547C126.353 17.9632 126.103 17.4855 125.602 17.1215C125.102 16.7423 124.2 16.4693 122.895 16.3024C121.394 16.1053 120.203 15.8095 119.323 15.4152C118.459 15.0056 117.837 14.49 117.458 13.8681C117.079 13.2311 116.889 12.4424 116.889 11.5021C116.889 10.6679 117.132 9.90193 117.617 9.20425C118.102 8.50656 118.8 7.96055 119.71 7.5662C120.635 7.15669 121.712 6.95194 122.941 6.95194C124.26 6.95194 125.36 7.18703 126.239 7.6572C127.119 8.12738 127.771 8.74923 128.196 9.52275C128.621 10.2963 128.841 11.138 128.856 12.0481H125.921C125.921 11.3959 125.678 10.812 125.193 10.2963C124.708 9.76543 123.942 9.5 122.895 9.5C121.849 9.5 121.098 9.69718 120.643 10.0915C120.188 10.4859 119.96 10.9105 119.96 11.3656C119.96 12.4576 120.999 13.1173 123.077 13.3449Z" fill="white"/>
</svg>
